
	<svg xmlns="http://www.w3.org/2000/svg" xmlns:xlink="http://www.w3.org/1999/xlink" version="1.1" width="128" height="128" viewBox="0 0 100 100">


		<defs>
			<linearGradient id="Gradient_2" gradientUnits="userSpaceOnUse" x1="50" y1="66" x2="50" y2="0" spreadMethod="pad">
<stop offset="0%" stop-color="#FFFFFF" stop-opacity="0.1"/>
<stop offset="100%" stop-color="#FFFFFF" stop-opacity="0.4"/>
</linearGradient><linearGradient id="Gradient_3" gradientUnits="userSpaceOnUse" x1="58" y1="84" x2="58" y2="0" spreadMethod="pad">
<stop offset="0%" stop-color="#FFFFFF" stop-opacity="0.1"/>
<stop offset="100%" stop-color="#FFFFFF" stop-opacity="0.4"/>
</linearGradient><linearGradient id="Gradient_4" gradientUnits="userSpaceOnUse" x1="42" y1="84" x2="42" y2="0" spreadMethod="pad">
<stop offset="0%" stop-color="#FFFFFF" stop-opacity="0.1"/>
<stop offset="100%" stop-color="#FFFFFF" stop-opacity="0.4"/>
</linearGradient><g id="background">
<path fill="url(#background-gradient)" stroke="none" d=" M 50 93.55 Q 47.7 93.55 45.25 93.3 L 43.3 99.55 Q 46.65 100 50 100 53.3 100 56.7 99.55 L 54.7 93.3 Q 52.25 93.55 50 93.55 M 71.65 87.75 L 73.65 94 Q 79.6 90.8 84.55 86.15 L 79.2 82.25 Q 75.8 85.4 71.65 87.75 M 67.85 89.75 Q 63.5 91.7 58.9 92.6 L 58.9 99.2 Q 65.65 97.95 71.7 95.05 L 67.85 89.75 M 26.3 94 L 28.35 87.75 Q 24.2 85.4 20.75 82.25 L 15.45 86.15 Q 20.3 90.8 26.3 94 M 32.15 89.75 L 28.3 95.05 Q 34.3 97.95 41.05 99.2 L 41.1 92.6 Q 36.5 91.7 32.15 89.75 M 12.2 71.65 L 5.95 73.7 Q 9.2 79.7 13.85 84.55 L 17.75 79.25 Q 14.55 75.8 12.2 71.65 M 0.8 58.9 Q 2 65.65 4.9 71.7 L 10.25 67.85 Q 8.3 63.5 7.35 58.9 L 0.8 58.9 M 6.7 45.3 L 0.45 43.3 Q 0 46.45 0 50 0 53.6 0.45 56.7 L 6.7 54.7 Q 6.45 52.4 6.45 50 6.45 47.6 6.7 45.3 M 4.9 28.3 Q 2 34.35 0.8 41.1 L 7.35 41.15 Q 8.3 36.5 10.25 32.15 L 4.9 28.3 M 17.75 20.8 L 13.85 15.45 Q 9.2 20.3 5.95 26.3 L 12.2 28.4 Q 14.55 24.2 17.75 20.8 M 28.35 12.25 L 26.3 6 Q 20.3 9.2 15.45 13.85 L 20.75 17.75 Q 24.2 14.6 28.35 12.25 M 41.1 7.4 L 41.05 0.8 Q 34.3 2.05 28.3 4.95 L 32.15 10.25 Q 36.5 8.35 41.1 7.4 M 45.25 6.7 Q 47.7 6.5 50 6.5 52.25 6.5 54.7 6.7 L 56.7 0.45 Q 53.3 0 50 0 46.65 0 43.3 0.45 L 45.25 6.7 M 67.85 10.25 L 71.7 4.95 Q 65.65 2.05 58.9 0.8 L 58.9 7.4 Q 63.5 8.35 67.85 10.25 M 73.65 6 L 71.65 12.25 Q 75.8 14.65 79.2 17.75 L 84.55 13.85 Q 79.6 9.2 73.65 6 M 94 73.7 L 87.75 71.65 Q 85.4 75.8 82.25 79.25 L 86.15 84.55 Q 90.8 79.7 94 73.7 M 92.6 58.9 Q 91.7 63.5 89.7 67.85 L 95.05 71.7 Q 98 65.55 99.2 58.9 L 92.6 58.9 M 99.55 43.3 L 93.3 45.3 Q 93.5 47.75 93.5 50 93.5 52.3 93.3 54.7 L 99.55 56.7 Q 100 53.35 100 50 100 46.65 99.55 43.3 M 92.6 41.15 L 99.2 41.1 Q 98 34.45 95.05 28.3 L 89.7 32.15 Q 91.7 36.5 92.6 41.15 M 86.15 15.45 L 82.25 20.8 Q 85.4 24.2 87.75 28.4 L 94 26.3 Q 90.8 20.35 86.15 15.45 Z"/>
</g><mask id="mask">
<path fill="#FFFFFF" stroke="none" d=" M 80.1 19.85 Q 67.7 7.4 50 7.4 32.3 7.4 19.75 19.85 7.4 32.4 7.4 50 7.4 67.7 19.75 80.1 32.3 92.6 50 92.6 67.7 92.6 80.1 80.1 92.6 67.7 92.6 50 92.6 32.4 80.1 19.85 Z"/>
</mask><g id="gloss-top">
<path fill="url(#Gradient_2)" stroke="none" d=" M 100 47.8 Q 99.55 38 95.5 29.15 91.5 20.5 84.7 13.95 77.8 7.35 69 3.7 59.95 0 50.1 0 40.15 0 31.1 3.7 22.3 7.35 15.45 13.95 8.6 20.5 4.6 29.15 0.55 38 0.1 47.8 9.25 56.2 22.05 60.9 35.3 65.75 50.1 65.75 64.85 65.75 78.1 60.9 90.85 56.2 100 47.8 Z"/>
</g><g id="gloss-right">
<path fill="url(#Gradient_3)" stroke="none" d=" M 100 48.9 Q 99.8 39.4 96.15 30.65 92.35 21.55 85.3 14.55 78.3 7.6 69.25 3.85 60.5 0.15 51 0 41.5 -0.2 32.6 3.1 23.45 6.5 16.2 13.15 16.75 25.5 22.45 37.85 28.45 50.65 38.9 61.1 49.35 71.5 62.15 77.45 74.55 83.15 86.9 83.65 93.55 76.45 96.9 67.25 100.2 58.4 100 48.9 Z"/>
</g><g id="gloss-left">
<path fill="url(#Gradient_4)" stroke="none" d=" M 3.85 30.65 Q 0.2 39.4 0 48.9 -0.2 58.4 3.1 67.25 6.5 76.45 13.1 83.65 25.45 83.15 37.85 77.45 50.65 71.5 61.1 61.1 71.55 50.65 77.55 37.85 83.25 25.5 83.8 13.15 76.55 6.5 67.4 3.1 58.5 -0.2 49 0 39.5 0.15 30.75 3.85 21.7 7.6 14.7 14.55 7.65 21.55 3.85 30.65 Z"/>
</g>
			
	<linearGradient id="background-gradient" x1="0" y1="0" y2="1" x2="0" >
		<stop stop-color="#10b789" offset="0%"/>
		<stop stop-color="#072e17" offset="100%"/>
	</linearGradient>

			
			
			<g transform="translate(-99.99900817871094 -100.00001525878906)" id="picture">
    <path d="M113.665 156.832l-4.038 10.87c-.62 1.553.31 3.416 1.864 4.037 1.552.621 3.416-.31 4.037-1.863l4.969-13.044c.621-1.242 0-2.795-.932-3.416l-7.764-6.211 7.764-6.211c.932-.932 1.553-2.174.932-3.416l-3.416-9.317 9.938-1.553c1.242-.31 2.484-1.242 2.484-2.484l1.553-9.938 9.317 3.726c1.242.622 2.795 0 3.416-.931l6.211-7.764 6.211 7.764c.932.931 2.174 1.553 3.416.931l9.317-3.726 1.553 9.938c.31 1.242 1.242 2.484 2.484 2.484l9.938 1.553-3.726 9.317c-.622 1.242 0 2.795.931 3.416l7.764 6.211-7.764 6.211c-.931.932-1.553 2.174-.931 3.416l4.968 13.044c.622 1.242 1.553 1.863 2.796 1.863.31 0 .62 0 1.242-.31 1.553-.622 2.484-2.485 1.863-4.038l-4.037-10.87 9.006-7.453c.621-.62 1.242-1.552 1.242-2.484 0-.932-.31-1.864-1.242-2.485l-9.006-7.453 4.037-10.87c.31-.931.31-1.863-.31-2.795s-1.243-1.242-2.485-1.552l-11.49-1.864-.932-10.559c0-.931-.621-1.863-1.553-2.174-.932-.62-1.863-.62-2.795-.31l-10.87 4.037-7.453-9.006c-1.242-1.553-3.727-1.553-4.969 0l-7.453 9.006-10.249-4.037c-.621-.31-1.553 0-2.484.31-1.243.621-1.553 1.243-1.553 2.174l-1.864 11.49-11.49 1.864c-.932.31-1.864.621-2.485 1.553s-.62 1.863 0 2.795l3.727 10.87-9.006 7.453c-.621.31-.932 1.242-.932 2.174 0 .932.31 1.863 1.242 2.484l9.007 7.143zm80.745 33.54l4.658-7.142c.621-.932.621-2.174 0-3.106s-1.242-1.863-2.484-1.863H184.16v-3.106c0-1.863-1.242-3.105-3.105-3.105h-62.112c-1.863 0-3.105 1.242-3.105 3.105v3.106h-12.423c-1.242 0-2.174.621-2.795 1.553s-.621 2.174 0 3.105l4.659 7.143-4.348 4.348c-.621 1.242-.932 2.484-.31 3.727s1.552 1.863 2.794 1.863h18.634c1.863 0 3.105-1.242 3.105-3.106v-3.105h49.69v3.105c0 1.864 1.242 3.106 3.105 3.106h18.634c1.242 0 2.484-.621 2.795-1.863.621-1.243.31-2.485-.621-3.417l-4.348-4.347zm-6.211 2.485l.931.932h-8.074v-3.106c0-1.863-1.242-3.105-3.106-3.105h-55.9c-1.864 0-3.106 1.242-3.106 3.105v3.106h-7.764l.932-.932c.931-.932 1.242-2.795.31-4.037l-3.105-4.348h9.938c1.863 0 3.105-1.242 3.105-3.106v-3.105h55.9v3.105c0 1.864 1.243 3.106 3.106 3.106h9.628l-3.106 4.348c-.931 1.242-.62 3.105.31 4.037zm-22.982-27.95c.622.62 1.553.62 2.174 0 4.659-4.659 7.143-10.87 7.143-17.702 0-6.522-2.484-12.733-7.143-17.702-4.658-4.658-10.87-7.143-17.391-7.143s-12.733 2.485-17.702 7.143c-4.348 4.969-6.832 11.18-6.832 17.702s2.484 12.733 7.143 17.702c.31.31.62.31 1.242.31s.932 0 1.242-.31c.621-.621.621-1.553 0-2.174-4.348-4.348-6.522-9.627-6.522-15.528s2.174-11.18 6.522-15.217c4.037-4.348 9.317-6.522 15.218-6.522s11.18 2.174 15.217 6.522c4.037 4.037 6.522 9.627 6.522 15.217 0 5.9-2.174 11.18-6.522 15.217-.621.621-.621 1.864-.31 2.485z"/>
    <path fill="#365905" d="M137.493 165.032h-1.147l9.667-27.064h1.147l9.667 27.064h-1.147l-9.12-25.49-9.067 25.49zm9.23-22.704l.6 1.513-7.536 21.19h-1.147l8.083-22.703zm1.147 3.148l.546 1.635-6.335 17.92h-1.147l6.936-19.555zm1.147 3.209l.546 1.634-5.243 14.713h-1.147l5.844-16.347zm-2.895 13.138l.437-1.15h6.936l.437 1.15h-7.81zm.82-2.361l.436-1.15h5.298l.437 1.15h-6.172zm.819-2.362l.437-1.15h3.604l.437 1.15h-4.478zm1.638-19.132l9.667 27.064h-1.147l-9.612-27.064h1.092zm2.294 0l9.667 27.064h-1.147l-9.612-27.064h1.092zm11.96 27.064h-1.146l-9.667-27.064h1.147l9.667 27.064z"/>
    <path fill="#304f05" d="M161.76 131.522v4.843h5.286v1.227h-5.286v4.887h-1.495v-4.887h-5.311v-1.227h5.286v-4.843h1.52z"/>
</g>
			
		</defs>

		

			<use xlink:href="#background" fill="url(#background-gradient)" />

		

			<g mask="url(#mask)">
				<g transform="
				        translate(
                                50 50
)
                            translate(0 0)  scale(0.5)  
                            translate(
                                -50 -50
)">
						<use xlink:href="#picture"   />
				</g>
			</g>

		

			<use xlink:href="#gloss-top" opacity="1" />


	</svg>
